<?xml version="1.0" encoding="UTF-8" ?>
<!DOCTYPE svg PUBLIC "-//W3C//DTD SVG 1.1//EN" "http://www.w3.org/Graphics/SVG/1.1/DTD/svg11.dtd">
<svg width="650pt" height="639pt" viewBox="0 0 650 639" version="1.1" xmlns="http://www.w3.org/2000/svg">
<g id="#e2d6feff">
</g>
<g id="#151912ff">
<path fill="#151912" opacity="1.00" d=" M 242.16 87.62 C 260.33 64.55 288.41 48.69 318.01 47.54 C 336.26 46.68 354.08 51.88 371.11 57.88 C 390.26 65.22 408.97 75.81 421.63 92.36 C 432.69 106.42 438.31 124.03 439.88 141.68 C 468.21 150.82 492.23 173.56 500.57 202.44 C 508.70 229.51 503.48 258.48 494.17 284.54 C 510.93 312.62 508.18 347.88 496.49 377.29 C 508.97 398.95 518.08 425.23 510.04 450.07 C 504.12 469.21 489.67 484.19 474.12 496.13 C 446.97 516.55 415.78 530.53 386.54 547.54 C 372.08 556.59 357.14 565.86 346.61 579.58 C 339.33 588.97 335.36 601.39 337.94 613.20 C 338.29 615.74 339.53 618.28 338.99 620.88 C 335.80 621.58 333.60 618.39 331.11 616.92 C 309.82 600.47 289.86 579.41 283.22 552.59 C 282.94 551.71 282.45 550.98 281.74 550.39 C 265.70 535.69 254.47 516.43 246.77 496.25 C 242.06 483.06 239.16 469.05 239.81 455.00 C 242.03 415.35 256.53 378.00 268.52 340.58 C 278.83 308.35 285.40 274.85 286.58 240.99 C 279.67 243.75 272.89 247.25 267.53 252.51 C 261.44 258.27 258.21 266.33 252.09 272.07 C 242.16 281.97 228.56 289.77 214.13 288.61 C 200.13 287.48 189.34 273.70 189.81 260.00 C 190.05 250.04 193.89 240.67 196.05 231.05 C 199.83 216.11 200.56 200.51 198.59 185.24 C 192.63 195.80 191.88 208.15 192.11 219.99 C 191.87 224.69 186.04 224.13 183.94 221.10 C 174.46 210.90 169.11 197.44 165.91 184.05 C 162.29 168.77 164.74 151.42 175.36 139.37 C 160.78 121.99 145.75 104.91 132.65 86.36 C 129.75 81.67 125.73 76.92 125.84 71.14 C 128.49 66.46 134.93 69.99 138.87 71.06 C 162.24 81.16 181.52 98.40 200.65 114.79 C 194.70 103.46 187.50 91.47 188.30 78.21 C 188.74 71.91 195.97 69.59 201.19 71.68 C 215.16 75.98 229.57 80.09 242.16 87.62 M 245.42 88.80 C 248.91 91.10 252.25 93.62 255.48 96.28 C 267.66 68.40 306.02 61.04 331.30 74.60 C 352.40 66.98 375.59 77.27 390.60 92.39 C 403.80 105.38 411.08 123.63 412.28 141.97 C 412.98 150.76 411.80 159.87 407.75 167.78 C 399.85 184.19 381.24 193.40 376.52 211.63 C 372.51 223.22 375.45 235.99 381.92 246.09 C 388.65 255.74 396.79 264.37 406.03 271.67 C 399.79 261.91 394.31 250.19 397.47 238.38 C 401.40 224.34 412.84 214.42 420.76 202.66 C 442.52 173.05 441.61 130.21 422.51 99.56 C 403.71 71.23 369.74 58.58 337.75 52.19 C 303.08 45.71 267.35 62.08 245.42 88.80 M 128.88 72.13 C 131.88 80.08 137.24 86.83 142.31 93.55 C 142.76 87.74 142.60 81.91 141.89 76.13 C 137.75 74.23 133.41 72.73 128.88 72.13 M 263.02 90.07 C 261.02 93.28 258.12 96.71 258.99 100.74 C 269.19 92.71 281.77 86.58 295.06 87.48 C 303.74 88.02 312.11 91.70 318.75 97.24 C 327.53 104.59 328.52 117.35 337.06 124.93 C 348.62 136.96 367.00 137.30 382.37 134.62 C 367.72 133.33 352.07 126.23 346.53 111.66 C 342.43 103.37 344.53 93.04 338.54 85.57 C 330.52 75.15 316.59 71.56 304.00 71.59 C 288.70 71.74 272.26 77.24 263.02 90.07 M 191.76 79.06 C 191.55 91.36 198.11 102.54 203.86 113.02 C 212.48 125.37 220.68 139.43 234.93 145.99 C 233.59 149.61 230.51 147.57 228.04 146.44 C 236.96 162.78 229.77 183.17 218.12 196.18 C 215.74 198.51 211.64 202.84 208.37 199.68 C 207.29 194.01 205.55 188.47 201.94 183.86 C 204.14 200.03 203.40 216.62 199.35 232.46 C 197.29 241.63 193.68 250.53 193.29 260.01 C 192.87 273.20 204.35 286.23 218.01 285.20 C 235.85 284.21 250.78 271.24 259.54 256.41 C 267.03 247.53 275.21 235.53 270.30 223.49 C 270.83 223.05 271.90 222.16 272.43 221.71 C 277.68 228.19 275.17 237.31 272.14 244.21 C 282.89 237.06 296.27 235.36 306.84 227.98 C 317.51 219.86 318.08 205.13 317.70 192.89 C 317.15 190.48 320.64 189.72 320.95 192.15 C 321.88 202.98 321.05 214.72 315.12 224.16 C 309.52 232.78 299.39 236.36 290.17 239.67 C 289.21 264.39 285.93 289.04 279.96 313.06 C 267.99 362.07 244.52 408.75 243.17 459.97 C 244.45 492.09 259.66 522.93 281.93 545.76 C 281.37 535.66 282.87 525.37 287.26 516.20 C 296.11 496.80 313.98 484.13 330.35 471.49 C 314.70 462.85 305.76 445.95 302.11 428.99 C 299.34 416.17 298.38 402.89 299.75 389.83 C 300.31 389.70 301.43 389.45 301.99 389.32 C 312.59 404.59 331.09 418.42 350.60 412.79 C 364.80 407.30 374.50 393.99 381.20 380.84 C 363.84 381.38 346.32 372.65 337.84 357.23 C 327.54 339.19 325.43 317.40 328.21 297.10 C 329.23 292.70 329.51 287.21 333.39 284.29 C 337.40 282.60 338.42 288.40 340.12 290.82 C 346.08 302.91 360.87 312.93 374.31 306.45 C 384.69 299.24 386.11 285.15 386.80 273.52 C 367.09 264.25 350.17 247.57 343.56 226.50 C 337.14 206.37 340.47 184.42 348.28 165.18 C 350.38 160.46 351.43 155.38 351.84 150.26 C 332.58 149.13 319.29 133.86 305.40 122.45 C 294.48 113.06 280.16 106.97 265.56 109.00 C 266.71 112.40 267.49 115.92 267.70 119.50 C 266.63 119.56 265.57 119.61 264.51 119.66 C 263.76 110.89 258.46 103.51 251.91 97.99 C 237.21 86.06 218.68 80.21 200.69 75.24 C 197.26 73.86 191.77 74.28 191.76 79.06 M 335.08 77.04 C 339.81 81.13 344.27 86.06 345.70 92.34 C 347.49 100.12 347.27 108.89 352.52 115.42 C 357.65 123.19 366.28 127.93 375.25 129.76 C 381.28 131.32 387.72 130.64 393.57 132.96 C 392.78 134.59 392.13 136.44 390.40 137.31 C 379.78 143.99 367.98 149.47 355.28 150.27 C 355.13 161.12 349.10 170.46 346.72 180.80 C 341.33 199.77 342.36 221.14 352.56 238.35 C 363.84 257.32 383.41 271.37 405.07 275.73 C 393.63 266.24 382.47 255.71 376.07 242.05 C 371.00 232.84 371.34 221.84 372.77 211.76 C 376.18 196.59 389.05 186.80 398.53 175.45 C 404.72 168.06 408.65 158.70 408.91 149.00 C 409.30 129.48 402.50 109.40 388.59 95.42 C 375.15 81.39 354.58 72.01 335.08 77.04 M 145.75 78.07 C 146.23 84.64 146.16 91.24 145.50 97.79 C 148.59 101.76 151.77 105.65 154.98 109.52 C 156.55 101.60 157.93 93.59 158.01 85.50 C 153.98 82.93 149.90 80.43 145.75 78.07 M 161.53 87.96 C 161.03 96.39 159.72 104.76 157.79 112.98 C 162.29 118.42 166.84 123.82 171.41 129.20 C 174.70 119.52 176.71 109.32 176.45 99.07 C 171.59 95.22 166.62 91.51 161.53 87.96 M 261.91 103.27 C 262.61 104.09 263.32 104.90 264.03 105.72 C 275.32 104.09 287.17 106.20 296.95 112.15 C 311.52 120.47 321.80 134.57 336.70 142.38 C 350.68 150.09 367.63 146.16 380.82 138.69 C 364.03 140.77 344.07 139.55 332.59 125.36 C 324.68 117.09 323.69 103.77 313.34 97.58 C 297.65 86.07 275.55 90.81 261.91 103.27 M 180.05 101.92 C 179.78 112.29 177.69 122.59 174.01 132.28 C 179.52 138.95 185.24 145.46 190.61 152.24 C 191.80 141.38 197.49 131.44 205.54 124.19 C 197.37 116.41 188.81 109.04 180.05 101.92 M 211.12 158.81 C 215.42 170.17 219.19 182.67 214.80 194.64 C 223.92 184.70 229.81 170.97 228.25 157.34 C 225.90 145.57 217.06 136.77 209.52 128.00 C 206.72 138.15 207.50 148.98 211.12 158.81 M 196.80 170.15 C 201.02 178.49 208.68 184.85 211.03 194.19 C 216.24 182.13 211.21 169.46 207.17 157.93 C 203.99 148.61 203.72 138.56 205.53 128.93 C 194.94 139.39 190.58 156.32 196.80 170.15 M 168.36 177.64 C 170.55 191.69 175.96 205.42 184.62 216.77 C 176.02 194.50 170.90 168.96 181.27 146.32 C 180.04 144.92 178.80 143.52 177.57 142.13 C 169.49 151.91 166.47 165.21 168.36 177.64 M 440.13 145.43 C 441.21 163.33 437.74 181.66 428.50 197.18 C 447.60 208.09 454.27 231.32 455.02 251.98 C 456.65 271.68 449.63 291.00 439.50 307.59 C 432.09 319.39 422.58 330.28 410.38 337.27 C 397.48 344.65 381.19 346.39 367.37 340.53 C 347.15 332.21 336.64 310.56 333.41 290.03 C 327.76 313.27 329.92 339.98 343.96 359.94 C 354.56 374.70 374.41 379.73 391.65 376.62 C 407.39 374.40 421.85 366.89 434.54 357.60 C 457.94 340.06 477.91 316.91 488.44 289.38 C 498.94 263.75 504.89 235.01 498.38 207.59 C 491.43 178.52 468.25 154.86 440.13 145.43 M 183.78 149.53 C 174.38 171.40 179.99 195.88 188.75 216.96 C 187.90 203.67 190.92 190.26 198.02 178.95 C 194.30 173.63 191.17 167.67 190.82 161.06 C 190.68 156.21 186.46 153.11 183.78 149.53 M 402.18 235.26 C 396.90 247.22 402.48 260.43 409.51 270.37 C 410.99 272.67 414.18 276.60 410.56 278.53 C 403.64 280.37 396.64 277.26 390.17 275.04 C 389.82 285.58 387.89 296.77 381.09 305.18 C 375.51 312.17 365.25 313.39 357.16 310.72 C 348.78 308.11 342.59 301.37 337.82 294.30 C 340.78 307.86 346.74 321.42 357.59 330.49 C 368.05 339.40 382.90 342.70 396.18 339.18 C 410.79 335.63 422.58 325.10 431.40 313.33 C 444.94 294.87 454.09 271.82 451.27 248.62 C 450.20 230.17 443.54 209.98 426.71 200.14 C 419.20 212.32 408.09 222.11 402.18 235.26 M 492.48 288.93 C 481.72 317.86 461.07 342.29 436.55 360.64 C 438.22 386.24 427.48 412.18 408.57 429.43 C 386.94 450.08 350.56 456.11 325.30 438.65 C 313.73 430.72 306.81 417.85 302.96 404.66 C 303.21 420.75 306.28 437.31 314.63 451.26 C 321.58 463.12 333.95 471.50 347.56 473.49 C 367.33 476.55 387.09 470.52 405.36 463.44 C 446.64 447.35 480.71 413.18 494.99 371.05 C 504.30 344.70 506.37 314.11 492.48 288.93 M 385.02 380.79 C 378.98 394.33 369.34 406.83 356.38 414.28 C 338.56 422.97 317.82 413.44 305.64 399.60 C 308.50 414.07 315.94 428.24 328.50 436.51 C 345.34 447.64 367.72 447.64 385.95 439.99 C 415.28 427.03 434.46 394.96 433.12 363.07 C 418.89 372.82 402.46 380.02 385.02 380.79 M 485.48 400.08 C 491.03 411.69 490.62 425.37 486.19 437.26 C 479.79 454.76 466.03 468.92 449.80 477.70 C 433.67 486.33 415.65 490.49 397.76 493.64 C 382.92 496.19 367.83 499.17 354.48 506.43 C 339.22 514.58 325.29 527.18 319.98 544.11 C 312.81 567.51 321.80 592.18 333.96 612.25 C 332.52 600.91 335.27 589.18 341.95 579.87 C 351.21 566.87 364.25 556.95 378.06 549.19 C 409.58 528.54 445.26 514.57 474.93 491.01 C 487.80 480.68 499.63 468.10 505.52 452.41 C 514.75 428.82 506.81 402.71 494.81 381.68 C 491.97 387.95 488.93 394.13 485.48 400.08 M 389.69 472.62 C 371.78 478.05 351.75 480.70 334.01 473.24 C 315.84 487.05 295.42 501.33 287.97 524.04 C 282.97 538.59 285.71 554.78 292.68 568.21 C 301.16 584.91 314.36 598.75 328.76 610.51 C 317.28 590.57 309.63 566.31 316.51 543.51 C 323.90 519.61 346.44 503.84 369.31 496.41 C 393.18 489.27 418.86 488.59 441.65 477.77 C 460.74 469.45 477.32 453.74 483.71 433.59 C 486.92 423.98 487.15 413.25 483.28 403.78 C 462.08 437.40 427.73 461.75 389.69 472.62 Z" />
<path fill="#151912" opacity="1.00" d=" M 220.53 88.75 C 220.87 87.25 221.71 85.31 223.56 86.48 C 233.22 91.74 243.49 96.76 250.76 105.27 C 256.41 111.74 259.39 120.53 258.26 129.11 C 257.49 128.98 255.94 128.72 255.17 128.59 C 255.23 121.86 253.83 114.90 249.58 109.50 C 242.13 99.93 231.09 94.21 220.53 88.75 Z" />
<path fill="#151912" opacity="1.00" d=" M 261.83 144.04 C 261.94 142.08 263.96 142.42 265.35 142.16 C 266.84 147.02 268.06 151.95 269.29 156.88 C 271.63 156.83 273.96 156.80 276.30 156.81 C 277.71 152.61 278.69 148.25 280.47 144.18 C 281.61 142.73 283.58 143.55 284.18 145.06 C 283.39 149.46 281.61 153.61 280.41 157.91 C 282.22 159.02 284.03 160.15 285.80 161.33 C 288.75 158.18 291.60 154.94 294.77 152.01 C 295.45 152.34 296.81 152.98 297.48 153.31 C 295.17 159.02 289.79 162.99 286.02 167.72 C 277.99 155.80 257.67 161.02 256.10 175.21 C 255.63 175.30 254.70 175.47 254.23 175.55 C 250.31 172.14 244.84 171.94 240.48 169.39 C 239.84 168.01 240.44 166.19 242.10 166.03 C 245.93 166.82 249.54 168.42 253.25 169.63 C 254.03 168.11 254.82 166.59 255.63 165.08 C 252.22 161.85 248.62 158.78 245.64 155.13 C 246.46 154.27 247.29 153.40 248.12 152.54 C 251.84 155.37 255.15 158.68 258.47 161.96 C 260.65 160.54 262.90 159.21 265.20 157.99 C 264.14 153.33 262.53 148.78 261.83 144.04 Z" />
<path fill="#151912" opacity="1.00" d=" M 220.11 253.92 C 218.44 246.75 229.46 243.06 232.58 249.63 C 231.19 249.82 229.81 250.01 228.42 250.19 C 226.10 252.29 223.46 254.39 220.11 253.92 Z" />
</g>
<g id="#ff45b8ff">
<path fill="#ff45b8" opacity="1.00" d=" M 245.42 88.80 C 267.35 62.08 303.08 45.71 337.75 52.19 C 369.74 58.58 403.71 71.23 422.51 99.56 C 441.61 130.21 442.52 173.05 420.76 202.66 C 412.84 214.42 401.40 224.34 397.47 238.38 C 394.31 250.19 399.79 261.91 406.03 271.67 C 396.79 264.37 388.65 255.74 381.92 246.09 C 375.45 235.99 372.51 223.22 376.52 211.63 C 381.24 193.40 399.85 184.19 407.75 167.78 C 411.80 159.87 412.98 150.76 412.28 141.97 C 411.08 123.63 403.80 105.38 390.60 92.39 C 375.59 77.27 352.40 66.98 331.30 74.60 C 306.02 61.04 267.66 68.40 255.48 96.28 C 252.25 93.62 248.91 91.10 245.42 88.80 Z" />
<path fill="#ff45b8" opacity="1.00" d=" M 335.08 77.04 C 354.58 72.01 375.15 81.39 388.59 95.42 C 402.50 109.40 409.30 129.48 408.91 149.00 C 408.65 158.70 404.72 168.06 398.53 175.45 C 389.05 186.80 376.18 196.59 372.77 211.76 C 371.34 221.84 371.00 232.84 376.07 242.05 C 382.47 255.71 393.63 266.24 405.07 275.73 C 383.41 271.37 363.84 257.32 352.56 238.35 C 342.36 221.14 341.33 199.77 346.72 180.80 C 349.10 170.46 355.13 161.12 355.28 150.27 C 367.98 149.47 379.78 143.99 390.40 137.31 C 392.13 136.44 392.78 134.59 393.57 132.96 C 387.72 130.64 381.28 131.32 375.25 129.76 C 366.28 127.93 357.65 123.19 352.52 115.42 C 347.27 108.89 347.49 100.12 345.70 92.34 C 344.27 86.06 339.81 81.13 335.08 77.04 Z" />
</g>
<g id="#fff545ff">
<path fill="#fff545" opacity="1.00" d=" M 128.88 72.13 C 133.41 72.73 137.75 74.23 141.89 76.13 C 142.60 81.91 142.76 87.74 142.31 93.55 C 137.24 86.83 131.88 80.08 128.88 72.13 Z" />
<path fill="#fff545" opacity="1.00" d=" M 263.02 90.07 C 272.26 77.24 288.70 71.74 304.00 71.59 C 316.59 71.56 330.52 75.15 338.54 85.57 C 344.53 93.04 342.43 103.37 346.53 111.66 C 352.07 126.23 367.72 133.33 382.37 134.62 C 367.00 137.30 348.62 136.96 337.06 124.93 C 328.52 117.35 327.53 104.59 318.75 97.24 C 312.11 91.70 303.74 88.02 295.06 87.48 C 281.77 86.58 269.19 92.71 258.99 100.74 C 258.12 96.71 261.02 93.28 263.02 90.07 Z" />
<path fill="#fff545" opacity="1.00" d=" M 145.75 78.07 C 149.90 80.43 153.98 82.93 158.01 85.50 C 157.93 93.59 156.55 101.60 154.98 109.52 C 151.77 105.65 148.59 101.76 145.50 97.79 C 146.16 91.24 146.23 84.64 145.75 78.07 Z" />
<path fill="#fff545" opacity="1.00" d=" M 161.53 87.96 C 166.62 91.51 171.59 95.22 176.45 99.07 C 176.71 109.32 174.70 119.52 171.41 129.20 C 166.84 123.82 162.29 118.42 157.79 112.98 C 159.72 104.76 161.03 96.39 161.53 87.96 Z" />
<path fill="#fff545" opacity="1.00" d=" M 261.91 103.27 C 275.55 90.81 297.65 86.07 313.34 97.58 C 323.69 103.77 324.68 117.09 332.59 125.36 C 344.07 139.55 364.03 140.77 380.82 138.69 C 367.63 146.16 350.68 150.09 336.70 142.38 C 321.80 134.57 311.52 120.47 296.95 112.15 C 287.17 106.20 275.32 104.09 264.03 105.72 C 263.32 104.90 262.61 104.09 261.91 103.27 Z" />
<path fill="#fff545" opacity="1.00" d=" M 180.05 101.92 C 188.81 109.04 197.37 116.41 205.54 124.19 C 197.49 131.44 191.80 141.38 190.61 152.24 C 185.24 145.46 179.52 138.95 174.01 132.28 C 177.69 122.59 179.78 112.29 180.05 101.92 Z" />
<path fill="#fff545" opacity="1.00" d=" M 492.48 288.93 C 506.37 314.11 504.30 344.70 494.99 371.05 C 480.71 413.18 446.64 447.35 405.36 463.44 C 387.09 470.52 367.33 476.55 347.56 473.49 C 333.95 471.50 321.58 463.12 314.63 451.26 C 306.28 437.31 303.21 420.75 302.96 404.66 C 306.81 417.85 313.73 430.72 325.30 438.65 C 350.56 456.11 386.94 450.08 408.57 429.43 C 427.48 412.18 438.22 386.24 436.55 360.64 C 461.07 342.29 481.72 317.86 492.48 288.93 Z" />
<path fill="#fff545" opacity="1.00" d=" M 385.02 380.79 C 402.46 380.02 418.89 372.82 433.12 363.07 C 434.46 394.96 415.28 427.03 385.95 439.99 C 367.72 447.64 345.34 447.64 328.50 436.51 C 315.94 428.24 308.50 414.07 305.64 399.60 C 317.82 413.44 338.56 422.97 356.38 414.28 C 369.34 406.83 378.98 394.33 385.02 380.79 Z" />
</g>
<g id="#ffffffff">
<path fill="#ffffff" opacity="1.00" d=" M 191.76 79.06 C 191.77 74.28 197.26 73.86 200.69 75.24 C 218.68 80.21 237.21 86.06 251.91 97.99 C 258.46 103.51 263.76 110.89 264.51 119.66 C 265.57 119.61 266.63 119.56 267.70 119.50 C 267.49 115.92 266.71 112.40 265.56 109.00 C 280.16 106.97 294.48 113.06 305.40 122.45 C 319.29 133.86 332.58 149.13 351.84 150.26 C 351.43 155.38 350.38 160.46 348.28 165.18 C 340.47 184.42 337.14 206.37 343.56 226.50 C 350.17 247.57 367.09 264.25 386.80 273.52 C 386.11 285.15 384.69 299.24 374.31 306.45 C 360.87 312.93 346.08 302.91 340.12 290.82 C 338.42 288.40 337.40 282.60 333.39 284.29 C 329.51 287.21 329.23 292.70 328.21 297.10 C 325.43 317.40 327.54 339.19 337.84 357.23 C 346.32 372.65 363.84 381.38 381.20 380.84 C 374.50 393.99 364.80 407.30 350.60 412.79 C 331.09 418.42 312.59 404.59 301.99 389.32 C 301.43 389.45 300.31 389.70 299.75 389.83 C 298.38 402.89 299.34 416.17 302.11 428.99 C 305.76 445.95 314.70 462.85 330.35 471.49 C 313.98 484.13 296.11 496.80 287.26 516.20 C 282.87 525.37 281.37 535.66 281.93 545.76 C 259.66 522.93 244.45 492.09 243.17 459.97 C 244.52 408.75 267.99 362.07 279.96 313.06 C 285.93 289.04 289.21 264.39 290.17 239.67 C 299.39 236.36 309.52 232.78 315.12 224.16 C 321.05 214.72 321.88 202.98 320.95 192.15 C 320.64 189.72 317.15 190.48 317.70 192.89 C 318.08 205.13 317.51 219.86 306.84 227.98 C 296.27 235.36 282.89 237.06 272.14 244.21 C 275.17 237.31 277.68 228.19 272.43 221.71 C 271.90 222.16 270.83 223.05 270.30 223.49 C 275.21 235.53 267.03 247.53 259.54 256.41 C 250.78 271.24 235.85 284.21 218.01 285.20 C 204.35 286.23 192.87 273.20 193.29 260.01 C 193.68 250.53 197.29 241.63 199.35 232.46 C 203.40 216.62 204.14 200.03 201.94 183.86 C 205.55 188.47 207.29 194.01 208.37 199.68 C 211.64 202.84 215.74 198.51 218.12 196.18 C 229.77 183.17 236.96 162.78 228.04 146.44 C 230.51 147.57 233.59 149.61 234.93 145.99 C 220.68 139.43 212.48 125.37 203.86 113.02 C 198.11 102.54 191.55 91.36 191.76 79.06 M 220.53 88.75 C 231.09 94.21 242.13 99.93 249.58 109.50 C 253.83 114.90 255.23 121.86 255.17 128.59 C 255.94 128.72 257.49 128.98 258.26 129.11 C 259.39 120.53 256.41 111.74 250.76 105.27 C 243.49 96.76 233.22 91.74 223.56 86.48 C 221.71 85.31 220.87 87.25 220.53 88.75 M 261.83 144.04 C 262.53 148.78 264.14 153.33 265.20 157.99 C 262.90 159.21 260.65 160.54 258.47 161.96 C 255.15 158.68 251.84 155.37 248.12 152.54 C 247.29 153.40 246.46 154.27 245.64 155.13 C 248.62 158.78 252.22 161.85 255.63 165.08 C 254.82 166.59 254.03 168.11 253.25 169.63 C 249.54 168.42 245.93 166.82 242.10 166.03 C 240.44 166.19 239.84 168.01 240.48 169.39 C 244.84 171.94 250.31 172.14 254.23 175.55 C 254.70 175.47 255.63 175.30 256.10 175.21 C 257.67 161.02 277.99 155.80 286.02 167.72 C 289.79 162.99 295.17 159.02 297.48 153.31 C 296.81 152.98 295.45 152.34 294.77 152.01 C 291.60 154.94 288.75 158.18 285.80 161.33 C 284.03 160.15 282.22 159.02 280.41 157.91 C 281.61 153.61 283.39 149.46 284.18 145.06 C 283.58 143.55 281.61 142.73 280.47 144.18 C 278.69 148.25 277.71 152.61 276.30 156.81 C 273.96 156.80 271.63 156.83 269.29 156.88 C 268.06 151.95 266.84 147.02 265.35 142.16 C 263.96 142.42 261.94 142.08 261.83 144.04 M 314.43 152.62 C 307.05 154.60 302.50 163.45 305.49 170.57 C 307.98 178.28 317.99 181.86 324.93 177.87 C 331.62 174.40 334.30 165.16 330.25 158.73 C 327.25 153.18 320.30 151.19 314.43 152.62 M 220.11 253.92 C 223.46 254.39 226.10 252.29 228.42 250.19 C 229.81 250.01 231.19 249.82 232.58 249.63 C 229.46 243.06 218.44 246.75 220.11 253.92 Z" />
</g>
<g id="#d96aedff">
<path fill="#d96aed" opacity="1.00" d=" M 211.12 158.81 C 207.50 148.98 206.72 138.15 209.52 128.00 C 217.06 136.77 225.90 145.57 228.25 157.34 C 229.81 170.97 223.92 184.70 214.80 194.64 C 219.19 182.67 215.42 170.17 211.12 158.81 Z" />
<path fill="#d96aed" opacity="1.00" d=" M 196.80 170.15 C 190.58 156.32 194.94 139.39 205.53 128.93 C 203.72 138.56 203.99 148.61 207.17 157.93 C 211.21 169.46 216.24 182.13 211.03 194.19 C 208.68 184.85 201.02 178.49 196.80 170.15 Z" />
<path fill="#d96aed" opacity="1.00" d=" M 314.43 152.62 C 320.30 151.19 327.25 153.18 330.25 158.73 C 334.30 165.16 331.62 174.40 324.93 177.87 C 317.99 181.86 307.98 178.28 305.49 170.57 C 302.50 163.45 307.05 154.60 314.43 152.62 Z" />
<path fill="#d96aed" opacity="1.00" d=" M 485.48 400.08 C 488.93 394.13 491.97 387.95 494.81 381.68 C 506.81 402.71 514.75 428.82 505.52 452.41 C 499.63 468.10 487.80 480.68 474.93 491.01 C 445.26 514.57 409.58 528.54 378.06 549.19 C 364.25 556.95 351.21 566.87 341.95 579.87 C 335.27 589.18 332.52 600.91 333.96 612.25 C 321.80 592.18 312.81 567.51 319.98 544.11 C 325.29 527.18 339.22 514.58 354.48 506.43 C 367.83 499.17 382.92 496.19 397.76 493.64 C 415.65 490.49 433.67 486.33 449.80 477.70 C 466.03 468.92 479.79 454.76 486.19 437.26 C 490.62 425.37 491.03 411.69 485.48 400.08 Z" />
<path fill="#d96aed" opacity="1.00" d=" M 389.69 472.62 C 427.73 461.75 462.08 437.40 483.28 403.78 C 487.15 413.25 486.92 423.98 483.71 433.59 C 477.32 453.74 460.74 469.45 441.65 477.77 C 418.86 488.59 393.18 489.27 369.31 496.41 C 346.44 503.84 323.90 519.61 316.51 543.51 C 309.63 566.31 317.28 590.57 328.76 610.51 C 314.36 598.75 301.16 584.91 292.68 568.21 C 285.71 554.78 282.97 538.59 287.97 524.04 C 295.42 501.33 315.84 487.05 334.01 473.24 C 351.75 480.70 371.78 478.05 389.69 472.62 Z" />
</g>
<g id="#4feadaff">
<path fill="#4feada" opacity="1.00" d=" M 168.36 177.64 C 166.47 165.21 169.49 151.91 177.57 142.13 C 178.80 143.52 180.04 144.92 181.27 146.32 C 170.90 168.96 176.02 194.50 184.62 216.77 C 175.96 205.42 170.55 191.69 168.36 177.64 Z" />
<path fill="#4feada" opacity="1.00" d=" M 440.13 145.43 C 468.25 154.86 491.43 178.52 498.38 207.59 C 504.89 235.01 498.94 263.75 488.44 289.38 C 477.91 316.91 457.94 340.06 434.54 357.60 C 421.85 366.89 407.39 374.40 391.65 376.62 C 374.41 379.73 354.56 374.70 343.96 359.94 C 329.92 339.98 327.76 313.27 333.41 290.03 C 336.64 310.56 347.15 332.21 367.37 340.53 C 381.19 346.39 397.48 344.65 410.38 337.27 C 422.58 330.28 432.09 319.39 439.50 307.59 C 449.63 291.00 456.65 271.68 455.02 251.98 C 454.27 231.32 447.60 208.09 428.50 197.18 C 437.74 181.66 441.21 163.33 440.13 145.43 Z" />
<path fill="#4feada" opacity="1.00" d=" M 183.78 149.53 C 186.46 153.11 190.68 156.21 190.82 161.06 C 191.17 167.67 194.30 173.63 198.02 178.95 C 190.92 190.26 187.90 203.67 188.75 216.96 C 179.99 195.88 174.38 171.40 183.78 149.53 Z" />
<path fill="#4feada" opacity="1.00" d=" M 402.18 235.26 C 408.09 222.11 419.20 212.32 426.71 200.14 C 443.54 209.98 450.20 230.17 451.27 248.62 C 454.09 271.82 444.94 294.87 431.40 313.33 C 422.58 325.10 410.79 335.63 396.18 339.18 C 382.90 342.70 368.05 339.40 357.59 330.49 C 346.74 321.42 340.78 307.86 337.82 294.30 C 342.59 301.37 348.78 308.11 357.16 310.72 C 365.25 313.39 375.51 312.17 381.09 305.18 C 387.89 296.77 389.82 285.58 390.17 275.04 C 396.64 277.26 403.64 280.37 410.56 278.53 C 414.18 276.60 410.99 272.67 409.51 270.37 C 402.48 260.43 396.90 247.22 402.18 235.26 Z" />
</g>
</svg>
