<svg id="Capa_1" enable-background="new 0 0 512 512" height="512" viewBox="0 0 512 512" width="512" xmlns="http://www.w3.org/2000/svg"><g><g><path d="m484.629 225.058c-20.379-70.018-43.361-106.196-43.732-106.845-1.31-1.599-33.786-40.463-112.059-69.209l-10.343 28.16c37.237 13.676 63.655 30.36 78.184 41.14-43.376-12.953-94.977-20.886-140.679-20.886h-.001l-10.001 160.916 10.001 164.352h.001l74.962-1.979 29.345 42.289c109.693 0 149.943-68.72 151.693-71.456-.271-3.817-7.732-99.006-27.371-166.482z" fill="#ff7dcd"/><path d="m115.321 118.304c14.528-10.779 40.946-27.464 78.183-41.14l-10.343-28.16c-78.271 28.746-110.747 67.61-112.057 69.209-.371.649-23.354 36.827-43.732 106.845-19.64 67.476-27.101 162.665-27.372 166.482 1.75 2.736 42 71.456 151.693 71.456l29.495-42.25 74.812 1.94v-325.268c-45.702 0-97.303 7.933-140.679 20.886z" fill="#fd93ef"/></g><path d="m156.642 254h30v50h-30z" fill="#fffbf5"/><path d="m325.358 254h30v50h-30z" fill="#f7f0eb"/><g><path d="m256 430.256-10.001-15 10.001-15c52.908 0 104.059-15.433 147.923-44.63l16.623 24.973c-48.804 32.486-105.703 49.657-164.546 49.657z" fill="#fd56a2"/><path d="m256 430.256c-58.843 0-115.742-17.171-164.546-49.657l16.623-24.973c43.864 29.197 95.015 44.63 147.923 44.63z" fill="#fd6adb"/></g></g></svg>