<svg id="Capa_1" enable-background="new 0 0 512 512" height="512" viewBox="0 0 512 512" width="512" xmlns="http://www.w3.org/2000/svg"><g><g><path d="m512 135.46c0-35.841-29.159-65-65-65h-191l-10.001 137.374 10.001 147.375 256-10.001z" fill="#d7d7d7"/><path d="m0 135.46v209.748l256 10.001v-284.749h-191c-35.841 0-65 29.158-65 65z" fill="#e6e6e6"/></g><g><circle cx="147" cy="207.999" fill="#fffbf5" r="45"/><circle cx="365" cy="207.999" fill="#f7f0eb" r="45"/></g><g><g><path d="m365 162.999h-109l-10.001 45 10.001 45h109c24.853 0 45-20.147 45-45 0-24.853-20.147-45-45-45z" fill="#2d2d2d"/><path d="m147 162.999c-24.853 0-45 20.147-45 45 0 24.853 20.147 45 45 45h109v-90z" fill="#464646"/></g><g><path d="m147 167v10.999c16.542 0 30 13.458 30 30s-13.458 30-30 30v13.668h41.084c11.632-10.95 18.916-26.47 18.916-43.668 0-15.844-6.184-30.263-16.251-40.999z" fill="#5698e0"/><path d="m365 177.999v-10.999h-43.749c-10.067 10.736-16.251 25.155-16.251 40.999 0 17.198 7.284 32.718 18.916 43.668h41.084v-13.668c-16.542 0-30-13.458-30-30s13.458-30 30-30z" fill="#4477bf"/></g><g><path d="m365 147.999h-109l-10.001 14.334 10.001 15.666h109c16.542 0 30 13.458 30 30s-13.458 30-30 30h-109l-10.001 15.001 10.001 14.999h109c33.084 0 60-26.916 60-60s-26.916-60-60-60z" fill="#12b0ff"/><path d="m147 237.999c-16.542 0-30-13.458-30-30s13.458-30 30-30h109v-30h-109c-33.084 0-60 26.916-60 60s26.916 60 60 60h109v-30z" fill="#36c6ff"/></g></g><g><path d="m430.979 441.54h16.021c35.841 0 65-29.159 65-65v-31.333h-121.023l10.001 48.166z" fill="#2d2d2d"/><path d="m65 441.54h16.021l30.146-48.512 9.857-47.82h-121.024v31.333c0 35.841 29.159 64.999 65 64.999z" fill="#464646"/><g><path d="m256 441.54h174.979l-40.002-96.332h-134.977l-10.001 48.166z" fill="#12b0ff"/><path d="m121.023 345.208-40.002 96.332h174.979v-96.332z" fill="#36c6ff"/></g></g></g></svg>