<?xml version="1.0" encoding="UTF-8" ?>
<!DOCTYPE svg PUBLIC "-//W3C//DTD SVG 1.1//EN" "http://www.w3.org/Graphics/SVG/1.1/DTD/svg11.dtd">
<svg width="512pt" height="512pt" viewBox="0 0 512 512" version="1.1" xmlns="http://www.w3.org/2000/svg">
<g id="#f9f9f9ff">
<path fill="#f9f9f9" opacity="1.00" d=" M 0.00 0.00 L 0.03 0.00 C 0.02 0.03 0.01 0.10 0.00 0.13 L 0.00 0.00 Z" />
<path fill="#f9f9f9" opacity="1.00" d=" M 173.83 83.70 C 180.81 76.56 187.93 69.55 194.99 62.49 C 211.16 78.32 226.86 94.63 243.06 110.43 C 242.89 110.70 242.56 111.23 242.40 111.49 C 235.62 118.30 228.84 125.11 222.00 131.86 C 206.01 115.74 189.84 99.80 173.83 83.70 Z" />
<path fill="#f9f9f9" opacity="1.00" d=" M 159.59 154.00 C 191.71 154.13 223.84 153.90 255.98 153.99 C 255.51 158.33 255.54 162.69 255.60 167.05 C 255.76 250.35 255.58 333.64 255.69 416.93 C 255.85 428.04 255.06 439.19 255.97 450.28 C 251.01 450.24 246.06 450.23 241.11 450.23 C 240.82 407.03 241.18 363.83 240.98 320.64 C 197.79 320.50 154.60 320.69 111.41 320.59 C 111.43 310.64 111.36 300.69 111.31 290.74 C 154.51 290.51 197.74 290.68 240.94 290.63 C 241.14 277.85 241.13 265.07 240.95 252.29 C 221.86 252.30 202.77 252.34 183.68 252.28 C 183.84 242.28 183.60 232.28 183.75 222.29 C 202.82 222.48 221.90 222.24 240.98 222.28 C 241.02 209.49 240.97 196.71 241.07 183.92 C 213.92 184.02 186.76 184.01 159.60 183.98 C 159.81 173.98 159.50 164.00 159.59 154.00 Z" />
</g>
<g id="#000000ff">
</g>
<g id="#ff8659ff">
<path fill="#ff8659" opacity="1.00" d=" M 48.09 0.00 L 256.01 0.00 C 255.99 51.33 256.07 102.66 255.98 153.99 C 223.84 153.90 191.71 154.13 159.59 154.00 C 159.50 164.00 159.81 173.98 159.60 183.98 C 186.76 184.01 213.92 184.02 241.07 183.92 C 240.97 196.71 241.02 209.49 240.98 222.28 C 221.90 222.24 202.82 222.48 183.75 222.29 C 183.60 232.28 183.84 242.28 183.68 252.28 C 202.77 252.34 221.86 252.30 240.95 252.29 C 241.13 265.07 241.14 277.85 240.94 290.63 C 197.74 290.68 154.51 290.51 111.31 290.74 C 111.36 300.69 111.43 310.64 111.41 320.59 C 154.60 320.69 197.79 320.50 240.98 320.64 C 241.18 363.83 240.82 407.03 241.11 450.23 C 246.06 450.23 251.01 450.24 255.97 450.28 C 256.16 470.85 255.88 491.43 256.11 512.00 L 47.82 512.00 C 34.78 511.30 22.06 505.50 13.27 495.79 C 5.39 487.47 0.91 476.32 0.00 464.96 L 0.00 47.04 C 0.90 35.68 5.40 24.55 13.24 16.20 C 22.11 6.44 34.94 0.60 48.09 0.00 M 173.83 83.70 C 189.84 99.80 206.01 115.74 222.00 131.86 C 228.84 125.11 235.62 118.30 242.40 111.49 C 242.56 111.23 242.89 110.70 243.06 110.43 C 226.86 94.63 211.16 78.32 194.99 62.49 C 187.93 69.55 180.81 76.56 173.83 83.70 Z" />
</g>
<g id="#ff405cff">
<path fill="#ff405c" opacity="1.00" d=" M 256.01 0.00 L 463.43 0.00 C 475.34 0.40 487.10 5.07 495.80 13.27 C 505.68 22.21 511.55 35.25 512.00 48.55 L 512.00 464.20 C 511.29 477.49 505.26 490.42 495.26 499.25 C 486.81 506.92 475.66 511.34 464.29 512.00 L 256.11 512.00 C 255.88 491.43 256.16 470.85 255.97 450.28 C 260.97 450.24 265.98 450.30 270.99 450.25 C 270.98 407.04 270.97 363.83 271.01 320.62 C 314.22 320.56 357.44 320.60 400.65 320.59 C 400.73 310.61 400.59 300.64 400.61 290.66 C 357.42 290.51 314.22 290.68 271.03 290.61 C 270.97 277.85 270.98 265.09 271.03 252.33 C 290.12 252.32 309.22 252.36 328.32 252.31 C 328.34 242.32 328.36 232.33 328.31 222.34 C 309.21 222.26 290.11 222.49 271.01 222.31 C 270.99 209.55 270.99 196.78 271.01 184.01 C 298.15 184.04 325.29 183.88 352.43 183.99 C 352.50 174.03 352.35 164.06 352.40 154.09 C 320.26 153.81 288.12 154.17 255.98 153.99 C 256.07 102.66 255.99 51.33 256.01 0.00 M 268.76 110.72 C 275.81 117.76 282.85 124.81 289.92 131.82 C 305.99 115.81 321.99 99.74 338.05 83.73 C 331.08 76.58 324.01 69.53 316.93 62.50 C 300.86 78.56 284.74 94.57 268.76 110.72 Z" />
</g>
<g id="#f1f4f6ff">
<path fill="#f1f4f6" opacity="1.00" d=" M 268.76 110.72 C 284.74 94.57 300.86 78.56 316.93 62.50 C 324.01 69.53 331.08 76.58 338.05 83.73 C 321.99 99.74 305.99 115.81 289.92 131.82 C 282.85 124.81 275.81 117.76 268.76 110.72 Z" />
<path fill="#f1f4f6" opacity="1.00" d=" M 255.98 153.99 C 288.12 154.17 320.26 153.81 352.40 154.09 C 352.35 164.06 352.50 174.03 352.43 183.99 C 325.29 183.88 298.15 184.04 271.01 184.01 C 270.99 196.78 270.99 209.55 271.01 222.31 C 290.11 222.49 309.21 222.26 328.31 222.34 C 328.36 232.33 328.34 242.32 328.32 252.31 C 309.22 252.36 290.12 252.32 271.03 252.33 C 270.98 265.09 270.97 277.85 271.03 290.61 C 314.22 290.68 357.42 290.51 400.61 290.66 C 400.59 300.64 400.73 310.61 400.65 320.59 C 357.44 320.60 314.22 320.56 271.01 320.62 C 270.97 363.83 270.98 407.04 270.99 450.25 C 265.98 450.30 260.97 450.24 255.97 450.28 C 255.06 439.19 255.85 428.04 255.69 416.93 C 255.58 333.64 255.76 250.35 255.60 167.05 C 255.54 162.69 255.51 158.33 255.98 153.99 Z" />
</g>
</svg>
