<svg id="Capa_1" enable-background="new 0 0 510.559 510.559" height="512" viewBox="0 0 510.559 510.559" width="512" xmlns="http://www.w3.org/2000/svg"><g><g><path d="m92.123 250.892c0-8.901.723-17.631 2.095-26.145l-89.706 4.811c-1.058 11.75-1.058 23.438-1.058 23.438 0 41.514 10.32 81.796 29.846 118.175l80.998-38.121c-14.092-24.13-22.175-52.198-22.175-82.158z" fill="#5698e0"/><path d="m418.436 250.892c0-8.901-.724-17.631-2.095-26.145l89.706 4.811c1.058 11.75 1.058 23.438 1.058 23.438 0 41.514-10.32 81.796-29.846 118.175l-80.999-38.121c14.093-24.13 22.176-52.198 22.176-82.158z" fill="#4477bf"/><path d="m349.315 149.325c23.188 21.299 38.344 49.499 43.34 80.234h113.391c-5.469-61.638-33.23-118.759-78.595-161.332-46.813-43.934-107.948-68.155-172.171-68.227l-10.001 62.892 10.001 49.708c34.935.071 68.321 13.105 94.035 36.725z" fill="#12b0ff"/><path d="m117.904 229.559c4.996-30.735 20.152-58.936 43.34-80.234 25.714-23.619 59.1-36.653 94.036-36.724v-112.601c-64.224.072-125.359 24.293-172.173 68.227-45.365 42.573-73.125 99.694-78.595 161.332z" fill="#36c6ff"/></g><g><path d="m125.087 324.262-35.87 7.646c-21.403 4.166-39.903 16.418-52.092 34.498s-16.607 39.825-12.441 61.228c4.165 21.403 16.417 39.904 34.497 52.093 13.643 9.197 29.369 13.97 45.463 13.97 5.236 0 10.512-.506 15.767-1.528l35.869-7.647z" fill="#464646"/><path d="m230.885 439.731-19.839-101.931c-5.935-30.486-35.566-50.463-66.052-44.528l-26.651 4.776 41.362 212.511 26.651-4.776c30.487-5.934 50.463-35.564 44.529-66.052z" fill="#e6e6e6"/></g><g><path d="m385.472 324.262 35.87 7.646c21.403 4.166 39.903 16.418 52.092 34.498s16.607 39.825 12.441 61.228c-4.165 21.403-16.417 39.904-34.497 52.093-13.643 9.197-29.369 13.97-45.463 13.97-5.236 0-10.512-.506-15.767-1.528l-35.869-7.647z" fill="#2d2d2d"/><path d="m279.674 439.731 19.839-101.931c5.935-30.486 35.566-50.463 66.052-44.528l26.651 4.776-41.362 212.511-26.651-4.776c-30.487-5.934-50.463-35.564-44.529-66.052z" fill="#d7d7d7"/></g></g></svg>