<svg id="Capa_1" enable-background="new 0 0 512 512" height="512" viewBox="0 0 512 512" width="512" xmlns="http://www.w3.org/2000/svg"><g><g><path d="m375.36 0h-169.658l-10.001 257 10.001 255h169.658l10.001-256z" fill="#12b0ff"/><path d="m36.043 0h169.659v512h-169.659z" fill="#36c6ff"/></g><g><g><path d="m297.201 333.5c0-50.453-41.047-91.5-91.499-91.5l-10.001 67 10.001 53h91.499z" fill="#aae3ff"/><path d="m205.701 242c-50.453 0-91.5 41.047-91.5 91.5v28.5h91.501z" fill="#cef"/></g><g><path d="m274.701 203c0-38.047-30.953-69-68.999-69l-10.001 69 10.001 69c38.046 0 68.999-30.953 68.999-69z" fill="#f7f0eb"/><path d="m205.701 134c-38.047 0-69 30.953-69 69s30.953 69 69 69h.001z" fill="#fffbf5"/></g></g><g><path d="m375.36 341.23 50.299 10.001 50.298-10.001v-170.615l-50.298-10.001-50.299 10.001z" fill="#aae3ff"/><path d="m475.957 170.615v-105.615c0-35.841-29.159-65-65-65h-35.597v170.615z" fill="#cef"/><path d="m475.957 447v-105.77h-100.597v170.615h39.856c33.862-2.203 60.741-30.436 60.741-64.845z" fill="#86ddff"/></g></g></svg>