<svg id="Capa_1" enable-background="new 0 0 512 512" height="512" viewBox="0 0 512 512" width="512" xmlns="http://www.w3.org/2000/svg"><g><g><g><path d="m256 140.04-10.001 112.961 10.001 121.757 222.89-10.001v-224.717z" fill="#12b0ff"/><path d="m33.11 364.757 222.89 10.001v-234.718h-222.89z" fill="#36c6ff"/></g><g><path d="m346.107 512h132.783v-147.243h-142.885z" fill="#4477bf"/><path d="m33.11 364.757v147.243h132.783l30.103-147.243z" fill="#5698e0"/></g></g><g><path d="m443.564 0h-187.564l-13.001 65.001 13.001 65.73 249.486-28.595z" fill="#12b0ff"/><path d="m64.916 0-58.402 102.206 249.486 28.525v-130.731z" fill="#36c6ff"/></g><g><path d="m131.257 175.629-10.001-37.629 10.001-35.863h124.743l10.001 37.905-10.001 35.587c0 34.447-27.925 62.371-62.372 62.371-34.447 0-62.371-27.924-62.371-62.371z" fill="#fd6717"/><path d="m380.743 175.629-10.001-32.478 10.001-41.014h124.743v73.492c0 34.447-27.925 62.372-62.371 62.372-34.447-.001-62.372-27.925-62.372-62.372z" fill="#ff4340"/><path d="m256 175.629v-73.492h124.743v73.492c0 34.447-27.925 62.372-62.372 62.372-34.446-.001-62.371-27.925-62.371-62.372z" fill="#efe2dd"/><path d="m6.514 175.629v-73.492h124.743v73.492c0 34.447-27.925 62.372-62.371 62.372-34.448-.001-62.372-27.925-62.372-62.372z" fill="#f7f0eb"/></g><g><path d="m346.107 382.327c0-49.685-40.421-90.107-90.107-90.107l-9.346 119.161 9.346 100.619h90.107z" fill="#efe2dd"/><path d="m165.893 382.327v129.673h90.107v-219.78c-49.685 0-90.107 40.422-90.107 90.107z" fill="#f7f0eb"/></g></g></svg>